<?xml version="1.0"?>
<svg version="1.1" xmlns="http://www.w3.org/2000/svg" width="400" height="227" style=""><path fill="#212426" d="M17.23388671875,127.96533203125q0-6.298828125,0.347900390625-12.451171875t0.860595703125-12.451171875q0.146484375-1.64794921875,0.18310546875-3.18603515625t0.347900390625-2.691650390625t1.0986328125-1.8310546875t2.435302734375-0.677490234375q1.06201171875,0,2.215576171875,0.3662109375t1.153564453125,1.72119140625q0,5.09033203125-0.421142578125,10.015869140625t-0.567626953125,9.796142578125q3.99169921875-4.50439453125,8.53271484375-8.404541015625t9.63134765625-7.708740234375q0.732421875-0.5126953125,1.86767578125-0.54931640625q0.3662109375,0,0.640869140625,0.03662109375t0.567626953125,0.10986328125q0.3662109375,0.146484375,0.750732421875,0.347900390625t0.384521484375,0.567626953125q0,0.29296875-0.32958984375,0.5126953125q-3.80859375,3.076171875-7.525634765625,6.26220703125t-7.086181640625,6.8115234375q0.439453125,0.84228515625,0.750732421875,1.57470703125t0.677490234375,1.57470703125q3.076171875,7.28759765625,5.255126953125,14.923095703125t4.632568359375,15.142822265625q0.2197265625,0.84228515625,0.640869140625,1.739501953125t0.787353515625,1.79443359375t0.640869140625,1.6845703125t0.274658203125,1.300048828125q0,0.6591796875-0.421142578125,1.043701171875t-0.970458984375,0.604248046875t-1.190185546875,0.29296875t-1.190185546875,0.0732421875q-1.28173828125,0-2.288818359375-0.3662109375t-1.593017578125-1.64794921875q-2.7099609375-8.642578125-5.218505859375-17.28515625t-5.072021484375-17.431640625q-0.84228515625,0.84228515625-1.6845703125,2.105712890625t-1.5380859375,2.325439453125q0,5.4931640625,0.25634765625,10.9130859375t0.87890625,10.9130859375q0.146484375,1.57470703125,0.494384765625,3.1494140625t0.347900390625,3.22265625q0,1.20849609375-1.2451171875,1.6845703125t-2.74658203125,0.47607421875q-1.64794921875,0-2.471923828125-0.32958984375t-1.171875-0.860595703125t-0.421142578125-1.171875t-0.2197265625-1.226806640625q-0.84228515625-5.7861328125-1.06201171875-11.444091796875t-0.2197265625-11.370849609375z M54.758422851562,141.33203125l0-3.4423828125q0-1.86767578125,0.091552734375-5.291748046875t0.238037109375-7.50732421875t0.40283203125-8.514404296875t0.5859375-8.367919921875t0.787353515625-7.049560546875t1.043701171875-4.6142578125q0.3662109375-0.84228515625,1.20849609375-1.06201171875t1.64794921875-0.2197265625q1.28173828125,0,2.252197265625,0.567626953125t0.970458984375,2.069091796875l-0.6591796875,0.732421875q-1.28173828125,8.45947265625-1.64794921875,16.9921875t-0.5126953125,17.0654296875q0.91552734375-1.42822265625,2.069091796875-2.801513671875t2.5634765625-2.435302734375t3.03955078125-1.702880859375t3.570556640625-0.640869140625q2.490234375,0,4.119873046875,1.50146484375t2.691650390625,3.900146484375t1.57470703125,5.364990234375t0.787353515625,5.9326171875t0.384521484375,5.621337890625t0.32958984375,4.412841796875q-0.69580078125,0.9521484375-2.05078125,0.9521484375l-0.10986328125,0q-0.5859375,0-1.28173828125-0.146484375t-0.91552734375-0.732421875l0.0732421875,0.0732421875q-0.5126953125-1.13525390625-0.69580078125-3.277587890625t-0.29296875-4.72412109375t-0.384521484375-5.291748046875t-0.823974609375-4.9072265625t-1.611328125-3.62548828125t-2.8564453125-1.50146484375l-0.2197265625,0q-2.16064453125,0-3.62548828125,1.318359375q-1.5380859375,1.3916015625-2.490234375,3.662109375t-1.46484375,5.0537109375t-0.787353515625,5.364990234375t-0.421142578125,4.6875t-0.3662109375,3.094482421875q-0.2197265625,0.84228515625-1.300048828125,1.116943359375t-1.849365234375,0.274658203125q-1.79443359375,0-2.9296875-1.025390625q-0.84228515625-2.01416015625-0.98876953125-5.01708984375t-0.146484375-5.859375z M89.792724609375,137.34033203125q0-2.490234375,0.677490234375-4.79736328125t2.032470703125-4.119873046875t3.387451171875-2.89306640625t4.705810546875-1.080322265625q1.64794921875,0,3.643798828125,0.494384765625t3.753662109375,1.46484375t2.9296875,2.471923828125t1.171875,3.4423828125q0,0.91552734375-0.311279296875,1.3916015625t-1.263427734375,0.47607421875l-0.40283203125-0.0732421875q1.06201171875,2.8564453125,1.8310546875,5.859375t1.50146484375,6.005859375q0.29296875,0.5859375,0.439453125,1.043701171875t0.146484375,0.897216796875q0,0.5859375-0.32958984375,0.970458984375t-0.860595703125,0.567626953125t-1.0986328125,0.25634765625t-1.007080078125,0.0732421875q-1.57470703125,0-2.362060546875-0.54931640625t-1.13525390625-1.50146484375t-0.421142578125-2.142333984375t-0.29296875-2.398681640625q-0.439453125,1.42822265625-1.153564453125,2.783203125t-1.6845703125,2.435302734375t-2.288818359375,1.72119140625t-2.96630859375,0.640869140625q-2.4169921875,0-4.06494140625-1.3916015625t-2.655029296875-3.424072265625t-1.46484375-4.339599609375t-0.457763671875-4.28466796875z M94.992919921875,136.82763671875q0,1.35498046875,0.18310546875,2.8564453125t0.604248046875,2.96630859375t1.080322265625,2.764892578125t1.64794921875,2.288818359375q1.79443359375-1.94091796875,2.655029296875-4.72412109375t1.5380859375-5.364990234375t1.5380859375-4.43115234375t2.655029296875-1.849365234375q1.13525390625,0,1.904296875,0.40283203125q-0.3662109375-0.91552734375-1.20849609375-1.776123046875t-1.885986328125-1.57470703125t-2.16064453125-1.171875t-2.105712890625-0.457763671875q-0.29296875,0-0.677490234375,0.091552734375t-0.604248046875,0.018310546875q-1.50146484375,0.439453125-2.471923828125,1.519775390625t-1.57470703125,2.545166015625t-0.860595703125,3.0029296875t-0.25634765625,2.89306640625z M121.53112792969,136.90087890625q0-2.8564453125,0.604248046875-5.181884765625t1.922607421875-3.936767578125t3.460693359375-2.508544921875t5.218505859375-0.897216796875q1.72119140625,0,3.515625,0.457763671875t3.076171875,1.702880859375q0-0.732421875,0.146484375-3.021240234375t0.3662109375-5.328369140625t0.457763671875-6.3720703125t0.421142578125-6.18896484375t0.32958984375-4.79736328125t0.2197265625-2.197265625q0.3662109375-1.06201171875,1.35498046875-1.263427734375t1.86767578125-0.201416015625q2.30712890625,0,2.838134765625,0.732421875t0.531005859375,2.9296875q0,8.02001953125-0.714111328125,15.966796875t-0.714111328125,15.966796875q0,5.16357421875,0.201416015625,10.382080078125t1.446533203125,10.272216796875l0.40283203125,0.3662109375l0.2197265625,0.6591796875l-0.54931640625,0.84228515625q-1.3916015625,0.87890625-3.22265625,0.87890625l-0.146484375,0q-1.86767578125,0-3.4423828125-0.87890625q-0.5859375-0.3662109375-0.970458984375-2.178955078125t-0.604248046875-3.99169921875t-0.32958984375-4.193115234375t-0.18310546875-2.8564453125q-1.28173828125,2.9296875-3.497314453125,5.035400390625t-5.584716796875,2.105712890625q-2.63671875,0-4.3212890625-1.13525390625t-2.618408203125-2.89306640625t-1.318359375-3.936767578125t-0.384521484375-4.339599609375z M125.96228027344,137.12060546875q0,0.84228515625,0.201416015625,2.490234375t0.640869140625,3.2958984375t1.226806640625,2.9296875t2.069091796875,1.28173828125q1.72119140625-0.84228515625,3.11279296875-2.801513671875t2.398681640625-4.3212890625t1.57470703125-4.72412109375t0.567626953125-4.083251953125q0-2.16064453125-1.57470703125-3.5888671875t-3.77197265625-1.42822265625q-0.6591796875,0-1.336669921875,0.25634765625t-1.263427734375,0.5859375q-1.35498046875,1.28173828125-2.105712890625,2.325439453125t-1.13525390625,2.16064453125t-0.494384765625,2.471923828125t-0.10986328125,3.1494140625z M156.19921875,136.46142578125q0-3.369140625,0.787353515625-6.610107421875t1.336669921875-6.463623046875q0.146484375-0.84228515625,1.153564453125-1.043701171875t1.702880859375-0.201416015625q1.20849609375,0,1.94091796875,0.3662109375q0.29296875,0.146484375,0.54931640625,0.32958984375t0.25634765625,0.47607421875q0,3.1494140625-0.750732421875,6.15234375t-0.750732421875,6.3720703125q0,1.13525390625,0.164794921875,2.142333984375t0.311279296875,1.995849609375l0.2197265625,1.06201171875q0,0.29296875,0.03662109375,0.5126953125t0.10986328125,0.5126953125q0,0.6591796875-0.933837890625,0.897216796875t-1.629638671875,0.238037109375q-1.06201171875,0-1.959228515625-0.421142578125t-1.409912109375-1.446533203125l-0.5126953125-1.06201171875q-0.439453125-0.84228515625-0.439453125-1.885986328125t-0.18310546875-1.922607421875z M158.54296875,114.41552734375l0-0.69580078125q0-1.72119140625,0.860595703125-3.076171875t2.581787109375-1.35498046875q0.2197265625,0,0.421142578125,0.03662109375t0.421142578125,0.03662109375q0.439453125,0.0732421875,1.153564453125,0.347900390625t0.714111328125,0.860595703125l0,0.0732421875q-0.146484375,0.29296875-0.18310546875,0.604248046875t-0.18310546875,0.531005859375l0.0732421875-0.0732421875q-0.439453125,1.13525390625-0.714111328125,1.8310546875t-0.604248046875,1.116943359375t-0.823974609375,0.604248046875t-1.409912109375,0.18310546875q-0.146484375,0-0.5126953125-0.03662109375t-0.787353515625-0.146484375t-0.714111328125-0.29296875t-0.29296875-0.54931640625z M172.19055175781,136.90087890625q0-2.8564453125,0.604248046875-5.181884765625t1.922607421875-3.936767578125t3.460693359375-2.508544921875t5.218505859375-0.897216796875q1.72119140625,0,3.515625,0.457763671875t3.076171875,1.702880859375q0-0.732421875,0.146484375-3.021240234375t0.3662109375-5.328369140625t0.457763671875-6.3720703125t0.421142578125-6.18896484375t0.32958984375-4.79736328125t0.2197265625-2.197265625q0.3662109375-1.06201171875,1.35498046875-1.263427734375t1.86767578125-0.201416015625q2.30712890625,0,2.838134765625,0.732421875t0.531005859375,2.9296875q0,8.02001953125-0.714111328125,15.966796875t-0.714111328125,15.966796875q0,5.16357421875,0.201416015625,10.382080078125t1.446533203125,10.272216796875l0.40283203125,0.3662109375l0.2197265625,0.6591796875l-0.54931640625,0.84228515625q-1.3916015625,0.87890625-3.22265625,0.87890625l-0.146484375,0q-1.86767578125,0-3.4423828125-0.87890625q-0.5859375-0.3662109375-0.970458984375-2.178955078125t-0.604248046875-3.99169921875t-0.32958984375-4.193115234375t-0.18310546875-2.8564453125q-1.28173828125,2.9296875-3.497314453125,5.035400390625t-5.584716796875,2.105712890625q-2.63671875,0-4.3212890625-1.13525390625t-2.618408203125-2.89306640625t-1.318359375-3.936767578125t-0.384521484375-4.339599609375z M176.62170410156,137.12060546875q0,0.84228515625,0.201416015625,2.490234375t0.640869140625,3.2958984375t1.226806640625,2.9296875t2.069091796875,1.28173828125q1.72119140625-0.84228515625,3.11279296875-2.801513671875t2.398681640625-4.3212890625t1.57470703125-4.72412109375t0.567626953125-4.083251953125q0-2.16064453125-1.57470703125-3.5888671875t-3.77197265625-1.42822265625q-0.6591796875,0-1.336669921875,0.25634765625t-1.263427734375,0.5859375q-1.35498046875,1.28173828125-2.105712890625,2.325439453125t-1.13525390625,2.16064453125t-0.494384765625,2.471923828125t-0.10986328125,3.1494140625z M200.68798828125,176.50659179688q0.128173828125-0.531005859375,0.531005859375-0.823974609375t1.318359375-0.29296875q0.98876953125,0,1.86767578125,0.5859375t1.28173828125,1.42822265625q1.28173828125-2.01416015625,2.01416015625-4.6875t1.116943359375-5.56640625t0.457763671875-5.694580078125t0.0732421875-5.145263671875q0-7.36083984375,0.18310546875-14.46533203125t0.5859375-14.46533203125q0-0.5126953125,0.439453125-0.860595703125t1.007080078125-0.531005859375t1.171875-0.25634765625t1.043701171875-0.0732421875q0.84228515625,0,1.64794921875,0.2197265625t1.50146484375,0.6591796875l0.439453125,0.84228515625q-0.0732421875,5.23681640625-0.29296875,10.455322265625t-0.2197265625,10.382080078125q0,2.01416015625,0.0732421875,5.2734375q0.03662109375,1.06201171875,0.03662109375,2.197265625q0,2.2705078125-0.10986328125,4.7607421875q-0.146484375,3.7353515625-0.640869140625,7.525634765625t-1.611328125,6.866455078125t-3.03955078125,5.035400390625t-4.852294921875,1.959228515625q-1.28173828125,0-2.398681640625-0.311279296875t-1.995849609375-1.190185546875q-0.84228515625-0.732421875-1.20849609375-1.57470703125q-0.2197265625-0.5126953125-0.384521484375-1.116943359375t-0.03662109375-1.13525390625z M211.07006835938,117.93115234375l0-2.252197265625t0.25634765625-1.9775390625t0.970458984375-1.3916015625t2.069091796875-0.531005859375q0.5126953125,0,1.043701171875,0.0732421875t1.007080078125,0.29296875l0.8056640625,0.91552734375q0,1.06201171875,0.03662109375,2.34375l0,0.29296875q0,1.0986328125-0.2197265625,2.05078125q-0.25634765625,1.13525390625-0.933837890625,1.922607421875t-2.105712890625,0.787353515625q-1.13525390625,0-1.72119140625-0.32958984375t-1.13525390625-1.3916015625z M224.86413574219,137.34033203125q0-2.490234375,0.677490234375-4.79736328125t2.032470703125-4.119873046875t3.387451171875-2.89306640625t4.705810546875-1.080322265625q1.64794921875,0,3.643798828125,0.494384765625t3.753662109375,1.46484375t2.9296875,2.471923828125t1.171875,3.4423828125q0,0.91552734375-0.311279296875,1.3916015625t-1.263427734375,0.47607421875l-0.40283203125-0.0732421875q1.06201171875,2.8564453125,1.8310546875,5.859375t1.50146484375,6.005859375q0.29296875,0.5859375,0.439453125,1.043701171875t0.146484375,0.897216796875q0,0.5859375-0.32958984375,0.970458984375t-0.860595703125,0.567626953125t-1.0986328125,0.25634765625t-1.007080078125,0.0732421875q-1.57470703125,0-2.362060546875-0.54931640625t-1.13525390625-1.50146484375t-0.421142578125-2.142333984375t-0.29296875-2.398681640625q-0.439453125,1.42822265625-1.153564453125,2.783203125t-1.6845703125,2.435302734375t-2.288818359375,1.72119140625t-2.96630859375,0.640869140625q-2.4169921875,0-4.06494140625-1.3916015625t-2.655029296875-3.424072265625t-1.46484375-4.339599609375t-0.457763671875-4.28466796875z M230.06433105469,136.82763671875q0,1.35498046875,0.18310546875,2.8564453125t0.604248046875,2.96630859375t1.080322265625,2.764892578125t1.64794921875,2.288818359375q1.79443359375-1.94091796875,2.655029296875-4.72412109375t1.5380859375-5.364990234375t1.5380859375-4.43115234375t2.655029296875-1.849365234375q1.13525390625,0,1.904296875,0.40283203125q-0.3662109375-0.91552734375-1.20849609375-1.776123046875t-1.885986328125-1.57470703125t-2.16064453125-1.171875t-2.105712890625-0.457763671875q-0.29296875,0-0.677490234375,0.091552734375t-0.604248046875,0.018310546875q-1.50146484375,0.439453125-2.471923828125,1.519775390625t-1.57470703125,2.545166015625t-0.860595703125,3.0029296875t-0.25634765625,2.89306640625z M270.87268066406,125.10888671875q0-2.16064453125,0.238037109375-5.23681640625t0.87890625-6.40869140625t1.72119140625-6.62841796875t2.764892578125-5.82275390625t4.0283203125-3.99169921875q1.94091796875-1.20849609375,4.4677734375-1.20849609375q0.5126953125,0,1.06201171875,0.0732421875q6.3720703125,0.5859375,9.796142578125,2.911376953125t4.998779296875,5.89599609375t1.8310546875,8.1298828125t0.25634765625,9.613037109375q0,4.06494140625-0.750732421875,8.843994140625t-2.655029296875,8.917236328125t-5.255126953125,6.903076171875t-8.514404296875,2.764892578125q-3.1494140625,0-5.511474609375-1.153564453125t-4.010009765625-3.076171875t-2.7099609375-4.4677734375t-1.611328125-5.2734375t-0.787353515625-5.511474609375t-0.238037109375-5.2734375z M278.30676269531,123.4609375q0,1.57470703125,0.03662109375,3.863525390625t0.311279296875,4.815673828125t0.714111328125,5.035400390625t1.300048828125,4.559326171875t2.178955078125,3.369140625t3.18603515625,1.3916015625l0.18310546875,0q1.6845703125,0,3.0029296875-1.28173828125q1.3916015625-1.35498046875,2.471923828125-3.25927734375t1.86767578125-4.010009765625t1.409912109375-3.607177734375l-0.146484375,0.32958984375q1.06201171875-3.369140625,1.42822265625-6.903076171875t0.3662109375-6.976318359375q0-1.64794921875-0.2197265625-3.973388671875t-0.714111328125-4.852294921875t-1.28173828125-4.998779296875t-1.995849609375-4.302978515625t-2.81982421875-2.783203125q-1.171875-0.69580078125-2.60009765625-0.732421875q-0.54931640625,0-1.0986328125,0.10986328125q-1.86767578125,0.3662109375-3.18603515625,1.8310546875t-2.142333984375,3.607177734375t-1.263427734375,4.6875t-0.677490234375,5.126953125t-0.274658203125,4.94384765625t-0.03662109375,4.010009765625z M294.82287597656,134.740234375l0-0.0732421875l0,0.0732421875z M308.98315429688,134.11767578125q0-0.732421875,0.164794921875-1.94091796875t0.384521484375-2.398681640625t0.5126953125-2.215576171875t0.69580078125-1.318359375q0.29296875-0.29296875,1.007080078125-0.5859375t1.50146484375-0.421142578125t1.46484375,0.10986328125t0.823974609375,0.970458984375q-0.5126953125,0.6591796875-0.933837890625,2.252197265625t-0.640869140625,3.533935546875q-0.18310546875,1.64794921875-0.18310546875,3.40576171875l0,0.62255859375q0.03662109375,2.05078125,0.3662109375,3.77197265625t1.007080078125,2.838134765625t1.885986328125,1.116943359375q2.5634765625,0,4.6875-2.362060546875t3.77197265625-5.767822265625t2.89306640625-7.232666015625t2.1240234375-6.683349609375q0.2197265625-0.84228515625,1.043701171875-1.13525390625t1.776123046875-0.201416015625t1.702880859375,0.457763671875t0.897216796875,0.87890625q-0.732421875,6.15234375-1.153564453125,12.3046875t-0.421142578125,12.3779296875q0,1.20849609375,0.10986328125,2.215576171875t-0.10986328125,1.72119140625t-0.970458984375,1.13525390625t-2.398681640625,0.421142578125q-0.3662109375,0-0.933837890625-0.0732421875t-1.171875-0.238037109375t-1.025390625-0.494384765625t-0.421142578125-0.76904296875q0-2.7099609375,0.201416015625-5.56640625t0.567626953125-5.52978515625q-0.98876953125,1.42822265625-2.178955078125,2.838134765625t-2.618408203125,2.545166015625t-3.076171875,1.812744140625t-3.55224609375,0.677490234375q-2.7099609375,0-4.266357421875-1.28173828125t-2.34375-3.204345703125t-0.98876953125-4.193115234375t-0.201416015625-4.39453125z M343.43151855469,136.05859375q0-2.01416015625,0.384521484375-4.302978515625t1.318359375-4.193115234375t2.581787109375-3.1494140625t4.21142578125-1.2451171875q1.72119140625,0,3.33251953125,0.567626953125t3.03955078125,1.556396484375q0.439453125-0.732421875,1.3916015625-0.897216796875t1.6845703125-0.164794921875q0.29296875,0,0.823974609375,0.03662109375t1.043701171875,0.2197265625t0.897216796875,0.439453125t0.457763671875,0.732421875q0.29296875,2.5634765625,0.40283203125,5.108642578125t0.32958984375,5.072021484375q0.3662109375,4.72412109375,1.13525390625,9.33837890625t0.76904296875,9.33837890625q0,2.23388671875-0.201416015625,4.833984375t-1.06201171875,4.815673828125t-2.508544921875,3.680419921875t-4.57763671875,1.46484375q-2.63671875,0-4.046630859375-0.933837890625t-2.545166015625-3.131103515625q0.0732421875-0.732421875,0.933837890625-0.970458984375t1.483154296875-0.238037109375q0.5859375,0,1.190185546875,0.10986328125t0.970458984375,0.3662109375l0.91552734375,0.5859375q1.35498046875-2.783203125,1.64794921875-6.0791015625t0.29296875-6.3720703125q0-2.5634765625-0.25634765625-5.072021484375t-0.5126953125-5.035400390625q-2.5634765625,4.65087890625-7.80029296875,4.65087890625q-2.4169921875,0-3.936767578125-1.025390625t-2.34375-2.60009765625t-1.13525390625-3.55224609375t-0.311279296875-3.955078125z M347.93591308594,136.38818359375q0,0.91552734375,0.0732421875,2.362060546875t0.384521484375,2.838134765625t0.897216796875,2.398681640625t1.64794921875,1.007080078125q2.01416015625,0,3.18603515625-1.57470703125t1.849365234375-3.753662109375t1.080322265625-4.50439453125t1.025390625-3.826904296875q-0.0732421875-0.5126953125-0.0732421875-1.007080078125l0-1.007080078125q-0.84228515625-1.57470703125-2.45361328125-2.728271484375t-3.33251953125-1.556396484375q-0.2197265625-0.03662109375-0.40283203125-0.03662109375q-1.025390625,0-1.6845703125,1.20849609375q-0.84228515625,1.46484375-1.318359375,3.497314453125t-0.677490234375,4.010009765625t-0.201416015625,2.67333984375z"/><path fill="#" d=""/></svg>
